<svg xmlns="http://www.w3.org/2000/svg" xmlns:xlink="http://www.w3.org/1999/xlink" viewBox="0 0 430 430" width="430" height="430" style="width: 100%; height: 100%; transform: translate3d(0px, 0px, 0px); content-visibility: visible;" preserveAspectRatio="xMidYMid meet"><defs><clipPath id="__lottie_element_16"><rect width="430" height="430" x="0" y="0"/></clipPath><clipPath id="__lottie_element_18"><path d="M0,0 L430,0 L430,430 L0,430z"/></clipPath></defs><g clip-path="url(#__lottie_element_16)"><g clip-path="url(#__lottie_element_18)" style="display: block;" transform="matrix(1,0,0,1,0,0)" opacity="1"><g style="display: block;" transform="matrix(1,0,0,1,125,178.73300170898438)" opacity="1"><g opacity="1" transform="matrix(1,0,0,1,0,0)"><path stroke-linecap="round" stroke-linejoin="round" fill-opacity="0" class="secondary" stroke="rgb(102,75,46)" stroke-opacity="1" stroke-width="12" d=" M64.05999755859375,0 C21.35300064086914,0 -35.5890007019043,0 -64.05999755859375,0"/></g></g><g style="display: block;" transform="matrix(1,0,0,1,0,0)" opacity="1"><g opacity="1" transform="matrix(1,0,0,1,0,0)"><g opacity="1" transform="matrix(1,0,0,1,0,0)"><g opacity="1" transform="matrix(1,0,0,1,125,357.5)"><g opacity="1" transform="matrix(1,0,0,1,0,0)"><path stroke-linecap="round" stroke-linejoin="round" fill-opacity="0" class="primary" stroke="rgb(0,0,0)" stroke-opacity="1" stroke-width="12" d=" M45,5.401000022888184 C45,5.401000022888184 45,17.5 45,17.5 C45,17.5 -45,17.5 -45,17.5 C-45,17.5 -45,5.401000022888184 -45,5.401000022888184 C-45,-4.789999961853027 -37.3380012512207,-13.35200023651123 -27.208999633789062,-14.47700023651123 C-27.208999633789062,-14.47700023651123 0,-17.5 0,-17.5 C0,-17.5 27.208999633789062,-14.47700023651123 27.208999633789062,-14.47700023651123 C37.3380012512207,-13.35200023651123 45,-4.789999961853027 45,5.401000022888184z"/></g></g><g opacity="1" transform="matrix(1,0,0,1,125,292.5)"><g opacity="1" transform="matrix(1,0,0,1,0,0)"><path stroke-linecap="round" stroke-linejoin="miter" fill-opacity="0" stroke-miterlimit="4" class="primary" stroke="rgb(0,0,0)" stroke-opacity="1" stroke-width="12" d=" M0,47.5 C0,47.5 0,-47.5 0,-47.5"/></g></g></g><g opacity="1" transform="matrix(1,0,0,1,125,150)"><g opacity="1" transform="matrix(1,0,0,1,0,0)"><path stroke-linecap="round" stroke-linejoin="round" fill-opacity="0" class="primary" stroke="rgb(0,0,0)" stroke-opacity="1" stroke-width="12" d=" M45,-95 C45,-95 -45,-95 -45,-95 C-45,-95 -63.303001403808594,20.917999267578125 -63.303001403808594,20.917999267578125 C-69.44499969482422,59.816001892089844 -39.380001068115234,95 0,95 C39.380001068115234,95 69.44499969482422,59.816001892089844 63.303001403808594,20.917999267578125 C63.303001403808594,20.917999267578125 45,-95 45,-95z"/></g></g></g></g><g style="display: block;" transform="matrix(1,0,0,1,305,178.73300170898438)" opacity="1"><g opacity="1" transform="matrix(1,0,0,1,0,0)"><path stroke-linecap="round" stroke-linejoin="round" fill-opacity="0" class="secondary" stroke="rgb(102,75,46)" stroke-opacity="1" stroke-width="12" d=" M64.05999755859375,0 C21.35300064086914,0 -35.5890007019043,0 -64.05999755859375,0"/></g></g><g style="display: block;" transform="matrix(1,0,0,1,0,0)" opacity="1"><g opacity="1" transform="matrix(1,0,0,1,0,0)"><g opacity="1" transform="matrix(1,0,0,1,180,0)"><g opacity="1" transform="matrix(1,0,0,1,125,357.5)"><g opacity="1" transform="matrix(1,0,0,1,0,0)"><path stroke-linecap="round" stroke-linejoin="round" fill-opacity="0" class="primary" stroke="rgb(0,0,0)" stroke-opacity="1" stroke-width="12" d=" M45,5.401000022888184 C45,5.401000022888184 45,17.5 45,17.5 C45,17.5 -45,17.5 -45,17.5 C-45,17.5 -45,5.401000022888184 -45,5.401000022888184 C-45,-4.789999961853027 -37.3380012512207,-13.35200023651123 -27.208999633789062,-14.47700023651123 C-27.208999633789062,-14.47700023651123 0,-17.5 0,-17.5 C0,-17.5 27.208999633789062,-14.47700023651123 27.208999633789062,-14.47700023651123 C37.3380012512207,-13.35200023651123 45,-4.789999961853027 45,5.401000022888184z"/></g></g><g opacity="1" transform="matrix(1,0,0,1,125,292.5)"><g opacity="1" transform="matrix(1,0,0,1,0,0)"><path stroke-linecap="round" stroke-linejoin="miter" fill-opacity="0" stroke-miterlimit="4" class="primary" stroke="rgb(0,0,0)" stroke-opacity="1" stroke-width="12" d=" M0,47.5 C0,47.5 0,-47.5 0,-47.5"/></g></g></g><g opacity="1" transform="matrix(1,0,0,1,305,150)"><g opacity="1" transform="matrix(1,0,0,1,0,0)"><path stroke-linecap="round" stroke-linejoin="round" fill-opacity="0" class="primary" stroke="rgb(0,0,0)" stroke-opacity="1" stroke-width="12" d=" M45,-95 C45,-95 -45,-95 -45,-95 C-45,-95 -63.303001403808594,20.917999267578125 -63.303001403808594,20.917999267578125 C-69.44499969482422,59.816001892089844 -39.380001068115234,95 0,95 C39.380001068115234,95 69.44499969482422,59.816001892089844 63.303001403808594,20.917999267578125 C63.303001403808594,20.917999267578125 45,-95 45,-95z"/></g></g></g></g></g></g></svg>