<svg xmlns="http://www.w3.org/2000/svg" xmlns:xlink="http://www.w3.org/1999/xlink" viewBox="0 0 430 430" width="430" height="430" style="width: 100%; height: 100%; transform: translate3d(0px, 0px, 0px); content-visibility: visible;" preserveAspectRatio="xMidYMid meet"><defs><clipPath id="__lottie_element_16"><rect width="430" height="430" x="0" y="0"/></clipPath><clipPath id="__lottie_element_18"><path d="M0,0 L430,0 L430,430 L0,430z"/></clipPath><clipPath id="__lottie_element_23"><path d="M0,0 L430,0 L430,430 L0,430z"/></clipPath><g id="__lottie_element_30"><g style="display: block;" transform="matrix(1,0,0,1,215,215)" opacity="1"><g opacity="1" transform="matrix(1,0,0,1,0,0)"><path fill="rgb(255,0,0)" fill-opacity="1" d=" M128,-143 C128,-143 -21,-132 -21,-132 C-21,-132 -124.09400177001953,38.65599822998047 -124.09400177001953,38.65599822998047 C-124.09400177001953,38.65599822998047 65.73999786376953,51.14899826049805 65.73999786376953,51.14899826049805 C65.73999786376953,51.14899826049805 128,-143 128,-143z"/><path stroke-linecap="butt" stroke-linejoin="miter" fill-opacity="0" stroke-miterlimit="4" stroke="rgb(255,0,0)" stroke-opacity="1" stroke-width="0" d=" M128,-143 C128,-143 -21,-132 -21,-132 C-21,-132 -124.09400177001953,38.65599822998047 -124.09400177001953,38.65599822998047 C-124.09400177001953,38.65599822998047 65.73999786376953,51.14899826049805 65.73999786376953,51.14899826049805 C65.73999786376953,51.14899826049805 128,-143 128,-143z"/></g></g></g><g id="__lottie_element_26"><g style="display: block;" transform="matrix(1,0,0,1,215,215)" opacity="1"><g opacity="1" transform="matrix(1,0,0,1,0,0)"><path fill="rgb(255,0,0)" fill-opacity="1" d=" M83,-103.75 C83,-103.75 27.25,-115.25 -23,-63.5 C-59.821998596191406,-25.57900047302246 -54.09400177001953,37.65599822998047 -54.09400177001953,37.65599822998047 C-54.09400177001953,37.65599822998047 -12.510000228881836,39.89899826049805 -12.510000228881836,39.89899826049805 C-12.510000228881836,39.89899826049805 -26.75,7 4.381999969482422,-31.663999557495117 C37.27000045776367,-72.50900268554688 81.51100158691406,-64.23600006103516 81.51100158691406,-64.23600006103516 C81.51100158691406,-64.23600006103516 83,-103.75 83,-103.75z"/><path stroke-linecap="butt" stroke-linejoin="miter" fill-opacity="0" stroke-miterlimit="4" stroke="rgb(255,0,0)" stroke-opacity="1" stroke-width="0" d=" M83,-103.75 C83,-103.75 27.25,-115.25 -23,-63.5 C-59.821998596191406,-25.57900047302246 -54.09400177001953,37.65599822998047 -54.09400177001953,37.65599822998047 C-54.09400177001953,37.65599822998047 -12.510000228881836,39.89899826049805 -12.510000228881836,39.89899826049805 C-12.510000228881836,39.89899826049805 -26.75,7 4.381999969482422,-31.663999557495117 C37.27000045776367,-72.50900268554688 81.51100158691406,-64.23600006103516 81.51100158691406,-64.23600006103516 C81.51100158691406,-64.23600006103516 83,-103.75 83,-103.75z"/></g></g></g><filter id="__lottie_element_35" filterUnits="objectBoundingBox" x="0%" y="0%" width="100%" height="100%"><feComponentTransfer in="SourceGraphic"><feFuncA type="table" tableValues="1.0 0.0"/></feComponentTransfer></filter><mask id="__lottie_element_26_2" mask-type="alpha" maskUnits="userSpaceOnUse"><g filter="url(#__lottie_element_35)"><rect width="430" height="430" x="0" y="0" fill="#ffffff" opacity="0"/><use a0:href="#__lottie_element_26" xmlns:a0="http://www.w3.org/1999/xlink"/></g></mask><mask id="__lottie_element_30_1" mask-type="alpha"><use a1:href="#__lottie_element_30" xmlns:a1="http://www.w3.org/1999/xlink"/></mask><g id="__lottie_element_39"><g style="display: block;" transform="matrix(1,0,0,1,125,185)" opacity="1"><g opacity="1" transform="matrix(1,0,0,1,0,0)"><path fill="rgb(255,0,0)" fill-opacity="1" d=" M20,-35 C-26.911500930786133,-35 -65,3.0885000228881836 -65,50 C-65,96.9114990234375 -26.911500930786133,135 20,135 C66.9114990234375,135 105,96.9114990234375 105,50 C105,3.0885000228881836 66.9114990234375,-35 20,-35z M20,-75 C88.98750305175781,-75 145,-18.987499237060547 145,50 C145,118.98750305175781 88.98750305175781,175 20,175 C-48.98749923706055,175 -105,118.98750305175781 -105,50 C-105,-18.987499237060547 -48.98749923706055,-75 20,-75z"/></g></g></g><filter id="__lottie_element_48" filterUnits="objectBoundingBox" x="0%" y="0%" width="100%" height="100%"><feComponentTransfer in="SourceGraphic"><feFuncA type="table" tableValues="1.0 0.0"/></feComponentTransfer></filter><mask id="__lottie_element_39_2" mask-type="alpha" maskUnits="userSpaceOnUse"><g filter="url(#__lottie_element_48)"><rect width="430" height="430" x="0" y="0" fill="#ffffff" opacity="0"/><use a2:href="#__lottie_element_39" xmlns:a2="http://www.w3.org/1999/xlink"/></g></mask></defs><g clip-path="url(#__lottie_element_16)"><g clip-path="url(#__lottie_element_18)" style="display: block;" transform="matrix(1,0,0,1,0,0)" opacity="1"><g style="display: block;" mask="url(#__lottie_element_26_2)"><g clip-path="url(#__lottie_element_23)" transform="matrix(1,0,0,1,0,0)" opacity="1"><g style="display: block;" mask="url(#__lottie_element_39_2)"><g transform="matrix(1,0,0,1,265,185)" opacity="1"><g opacity="1" transform="matrix(1,0,0,1,0,0)"><path stroke-linecap="round" stroke-linejoin="round" fill-opacity="0" class="secondary" stroke="rgb(102,75,46)" stroke-opacity="1" stroke-width="12" d=" M20,-35 C66.9114990234375,-35 105,3.0885000228881836 105,50 C105,96.9114990234375 66.9114990234375,135 20,135 C-26.911500930786133,135 -65,96.9114990234375 -65,50 C-65,3.0885000228881836 -26.911500930786133,-35 20,-35z M20,-75 C88.98750305175781,-75 145,-18.987499237060547 145,50 C145,118.98750305175781 88.98750305175781,175 20,175 C-48.98749923706055,175 -105,118.98750305175781 -105,50 C-105,-18.987499237060547 -48.98749923706055,-75 20,-75z"/></g></g></g><g style="display: block;" transform="matrix(1,0,0,1,145,95)" opacity="1"><g opacity="1" transform="matrix(1,0,0,1,0,0)"><path stroke-linecap="round" stroke-linejoin="round" fill-opacity="0" class="secondary" stroke="rgb(102,75,46)" stroke-opacity="1" stroke-width="12" d=" M25.902000427246094,15.746999740600586 C40.16299819946289,-0.35899999737739563 55,-17.114999771118164 55,-17.114999771118164 C55,-17.114999771118164 27.5,-45 27.5,-45 C27.5,-45 -27.5,-45 -27.5,-45 C-27.5,-45 -55,-17.114999771118164 -55,-17.114999771118164 C-55,-17.114999771118164 -55,-17.114999771118164 -55,-17.114999771118164 C-55,-17.114999771118164 -41.358001708984375,-1.7079999446868896 -27.66200065612793,13.758999824523926"/></g></g><g style="display: block;" transform="matrix(1,0,0,1,125,185)" opacity="1"><g opacity="1" transform="matrix(1,0,0,1,0,0)"><path stroke-linecap="round" stroke-linejoin="round" fill-opacity="0" class="primary" stroke="rgb(0,0,0)" stroke-opacity="1" stroke-width="12" d=" M20,-35 C66.9114990234375,-35 105,3.0885000228881836 105,50 C105,96.9114990234375 66.9114990234375,135 20,135 C-26.911500930786133,135 -65,96.9114990234375 -65,50 C-65,3.0885000228881836 -26.911500930786133,-35 20,-35z M20,-75 C88.98750305175781,-75 145,-18.987499237060547 145,50 C145,118.98750305175781 88.98750305175781,175 20,175 C-48.98749923706055,175 -105,118.98750305175781 -105,50 C-105,-18.987499237060547 -48.98749923706055,-75 20,-75z"/></g></g></g></g><g style="display: block;" mask="url(#__lottie_element_30_1)"><g transform="matrix(1,0,0,1,265,185)" opacity="1"><g opacity="1" transform="matrix(1,0,0,1,0,0)"><path stroke-linecap="round" stroke-linejoin="round" fill-opacity="0" class="secondary" stroke="rgb(102,75,46)" stroke-opacity="1" stroke-width="12" d=" M20,-35 C66.9114990234375,-35 105,3.0885000228881836 105,50 C105,96.9114990234375 66.9114990234375,135 20,135 C-26.911500930786133,135 -65,96.9114990234375 -65,50 C-65,3.0885000228881836 -26.911500930786133,-35 20,-35z M20,-75 C88.98750305175781,-75 145,-18.987499237060547 145,50 C145,118.98750305175781 88.98750305175781,175 20,175 C-48.98749923706055,175 -105,118.98750305175781 -105,50 C-105,-18.987499237060547 -48.98749923706055,-75 20,-75z"/></g></g></g></g></g></svg>