<svg xmlns="http://www.w3.org/2000/svg" xmlns:xlink="http://www.w3.org/1999/xlink" viewBox="0 0 430 430" width="430" height="430" style="width: 100%; height: 100%; transform: translate3d(0px, 0px, 0px); content-visibility: visible;" preserveAspectRatio="xMidYMid meet"><defs><clipPath id="__lottie_element_16"><rect width="430" height="430" x="0" y="0"/></clipPath><clipPath id="__lottie_element_18"><path d="M0,0 L430,0 L430,430 L0,430z"/></clipPath><g id="__lottie_element_25"><g style="display: block;" transform="matrix(1,0,0,1,215,215.00001525878906)" opacity="1"><path fill="rgb(255,0,0)" fill-opacity="1" d=" M133.43299865722656,107.41300201416016 C133.43299865722656,107.41300201416016 117.4209976196289,160.11900329589844 117.4209976196289,160.11900329589844 C117.4209976196289,160.11900329589844 -117.4209976196289,160.11900329589844 -117.4209976196289,160.11900329589844 C-117.4209976196289,160.11900329589844 -133.43299865722656,107.41300201416016 -133.43299865722656,107.41300201416016 M160.11900329589844,107.21900177001953 C160.11900329589844,107.21900177001953 -160.11900329589844,107.21900177001953 -160.11900329589844,107.21900177001953 C-160.11900329589844,107.21900177001953 -160.11900329589844,59.04100036621094 -160.11900329589844,59.04100036621094 C-160.11900329589844,59.04100036621094 160.11900329589844,59.04100036621094 160.11900329589844,59.04100036621094 C160.11900329589844,59.04100036621094 160.11900329589844,107.21900177001953 160.11900329589844,107.21900177001953z M117.33999633789062,-43.40399932861328 C117.33999633789062,-43.40399932861328 160.1199951171875,-26.27400016784668 160.1199951171875,-26.27400016784668 C160.1199951171875,-26.27400016784668 160.1199951171875,58.84600067138672 160.1199951171875,58.84600067138672 M80.83300018310547,-43.042999267578125 C80.83300018310547,-43.042999267578125 99.90899658203125,-35.875 99.90899658203125,-35.875 C106.95800018310547,-33.22600173950195 114.89299774169922,-36.82600021362305 117.54199981689453,-43.875 C117.54199981689453,-43.875 117.54199981689453,-43.875999450683594 117.54199981689453,-43.875999450683594 C120.19100189208984,-50.92499923706055 116.58999633789062,-58.86000061035156 109.54100036621094,-61.50899887084961 C109.54100036621094,-61.50899887084961 90.46499633789062,-68.677001953125 90.46499633789062,-68.677001953125 C83.41600036621094,-71.32599639892578 75.48100280761719,-67.7249984741211 72.83200073242188,-60.67599868774414 C72.83200073242188,-60.67599868774414 72.83200073242188,-60.67599868774414 72.83200073242188,-60.67599868774414 C70.18299865722656,-53.62699890136719 73.78399658203125,-45.69200134277344 80.83300018310547,-43.042999267578125z M-160.1199951171875,58.84600067138672 C-160.1199951171875,58.84600067138672 -160.1199951171875,-26.27400016784668 -160.1199951171875,-26.27400016784668 C-160.1199951171875,-26.27400016784668 -117.33999633789062,-43.40399932861328 -117.33999633789062,-43.40399932861328 M-80.83300018310547,-43.042999267578125 C-80.83300018310547,-43.042999267578125 -99.90899658203125,-35.875 -99.90899658203125,-35.875 C-106.95800018310547,-33.22600173950195 -114.89299774169922,-36.82600021362305 -117.54199981689453,-43.875 C-117.54199981689453,-43.875 -117.54199981689453,-43.875999450683594 -117.54199981689453,-43.875999450683594 C-120.19100189208984,-50.92499923706055 -116.58999633789062,-58.86000061035156 -109.54100036621094,-61.50899887084961 C-109.54100036621094,-61.50899887084961 -90.46499633789062,-68.677001953125 -90.46499633789062,-68.677001953125 C-83.41600036621094,-71.32599639892578 -75.48100280761719,-67.7249984741211 -72.83200073242188,-60.67599868774414 C-72.83200073242188,-60.67599868774414 -72.83200073242188,-60.67599868774414 -72.83200073242188,-60.67599868774414 C-70.18299865722656,-53.62699890136719 -73.78399658203125,-45.69200134277344 -80.83300018310547,-43.042999267578125z"/><g opacity="1" transform="matrix(1,0,0,1,0,0)"><path stroke-linecap="round" stroke-linejoin="round" fill-opacity="0" class="primary" stroke="rgb(0,0,0)" stroke-opacity="1" stroke-width="0" d=" M133.43299865722656,107.41300201416016 C133.43299865722656,107.41300201416016 117.4209976196289,160.11900329589844 117.4209976196289,160.11900329589844 C117.4209976196289,160.11900329589844 -117.4209976196289,160.11900329589844 -117.4209976196289,160.11900329589844 C-117.4209976196289,160.11900329589844 -133.43299865722656,107.41300201416016 -133.43299865722656,107.41300201416016"/></g><g opacity="1" transform="matrix(1,0,0,1,0,0)"><path stroke-linecap="round" stroke-linejoin="round" fill-opacity="0" class="primary" stroke="rgb(0,0,0)" stroke-opacity="1" stroke-width="0" d=" M160.11900329589844,107.21900177001953 C160.11900329589844,107.21900177001953 -160.11900329589844,107.21900177001953 -160.11900329589844,107.21900177001953 C-160.11900329589844,107.21900177001953 -160.11900329589844,59.04100036621094 -160.11900329589844,59.04100036621094 C-160.11900329589844,59.04100036621094 160.11900329589844,59.04100036621094 160.11900329589844,59.04100036621094 C160.11900329589844,59.04100036621094 160.11900329589844,107.21900177001953 160.11900329589844,107.21900177001953z"/></g><g opacity="1" transform="matrix(1,0,0,1,0,0)"><g opacity="1" transform="matrix(1,0,0,1,0,0)"><path stroke-linecap="round" stroke-linejoin="round" fill-opacity="0" class="primary" stroke="rgb(0,0,0)" stroke-opacity="1" stroke-width="0" d=" M117.33999633789062,-43.40399932861328 C117.33999633789062,-43.40399932861328 160.1199951171875,-26.27400016784668 160.1199951171875,-26.27400016784668 C160.1199951171875,-26.27400016784668 160.1199951171875,58.84600067138672 160.1199951171875,58.84600067138672"/></g><g opacity="1" transform="matrix(1,0,0,1,0,0)"><path stroke-linecap="round" stroke-linejoin="round" fill-opacity="0" class="primary" stroke="rgb(0,0,0)" stroke-opacity="1" stroke-width="0" d=" M80.83300018310547,-43.042999267578125 C80.83300018310547,-43.042999267578125 99.90899658203125,-35.875 99.90899658203125,-35.875 C106.95800018310547,-33.22600173950195 114.89299774169922,-36.82600021362305 117.54199981689453,-43.875 C117.54199981689453,-43.875 117.54199981689453,-43.875999450683594 117.54199981689453,-43.875999450683594 C120.19100189208984,-50.92499923706055 116.58999633789062,-58.86000061035156 109.54100036621094,-61.50899887084961 C109.54100036621094,-61.50899887084961 90.46499633789062,-68.677001953125 90.46499633789062,-68.677001953125 C83.41600036621094,-71.32599639892578 75.48100280761719,-67.7249984741211 72.83200073242188,-60.67599868774414 C72.83200073242188,-60.67599868774414 72.83200073242188,-60.67599868774414 72.83200073242188,-60.67599868774414 C70.18299865722656,-53.62699890136719 73.78399658203125,-45.69200134277344 80.83300018310547,-43.042999267578125z"/></g></g><g opacity="1" transform="matrix(1,0,0,1,0,0)"><g opacity="1" transform="matrix(1,0,0,1,0,0)"><path stroke-linecap="round" stroke-linejoin="round" fill-opacity="0" class="primary" stroke="rgb(0,0,0)" stroke-opacity="1" stroke-width="0" d=" M-160.1199951171875,58.84600067138672 C-160.1199951171875,58.84600067138672 -160.1199951171875,-26.27400016784668 -160.1199951171875,-26.27400016784668 C-160.1199951171875,-26.27400016784668 -117.33999633789062,-43.40399932861328 -117.33999633789062,-43.40399932861328"/></g><g opacity="1" transform="matrix(1,0,0,1,0,0)"><path stroke-linecap="round" stroke-linejoin="round" fill-opacity="0" class="primary" stroke="rgb(0,0,0)" stroke-opacity="1" stroke-width="0" d=" M-80.83300018310547,-43.042999267578125 C-80.83300018310547,-43.042999267578125 -99.90899658203125,-35.875 -99.90899658203125,-35.875 C-106.95800018310547,-33.22600173950195 -114.89299774169922,-36.82600021362305 -117.54199981689453,-43.875 C-117.54199981689453,-43.875 -117.54199981689453,-43.875999450683594 -117.54199981689453,-43.875999450683594 C-120.19100189208984,-50.92499923706055 -116.58999633789062,-58.86000061035156 -109.54100036621094,-61.50899887084961 C-109.54100036621094,-61.50899887084961 -90.46499633789062,-68.677001953125 -90.46499633789062,-68.677001953125 C-83.41600036621094,-71.32599639892578 -75.48100280761719,-67.7249984741211 -72.83200073242188,-60.67599868774414 C-72.83200073242188,-60.67599868774414 -72.83200073242188,-60.67599868774414 -72.83200073242188,-60.67599868774414 C-70.18299865722656,-53.62699890136719 -73.78399658203125,-45.69200134277344 -80.83300018310547,-43.042999267578125z"/></g></g></g></g><filter id="__lottie_element_31" filterUnits="objectBoundingBox" x="0%" y="0%" width="100%" height="100%"><feComponentTransfer in="SourceGraphic"><feFuncA type="table" tableValues="1.0 0.0"/></feComponentTransfer></filter><mask id="__lottie_element_25_2" mask-type="alpha" maskUnits="userSpaceOnUse"><g filter="url(#__lottie_element_31)"><rect width="430" height="430" x="0" y="0" fill="#ffffff" opacity="0"/><use a0:href="#__lottie_element_25" xmlns:a0="http://www.w3.org/1999/xlink"/></g></mask></defs><g clip-path="url(#__lottie_element_16)"><g clip-path="url(#__lottie_element_18)" style="display: block;" transform="matrix(1,0,0,1,0,0)" opacity="1"><g style="display: block;" mask="url(#__lottie_element_25_2)"><g transform="matrix(1,0,0,1,215,215)" opacity="1"><g opacity="1" transform="matrix(1,0,0,1,0,0)"><path stroke-linecap="round" stroke-linejoin="round" fill-opacity="0" class="primary" stroke="rgb(0,0,0)" stroke-opacity="1" stroke-width="12.04" d=" M-50.52000045776367,-118.84400177001953 C-50.52000045776367,-118.54399871826172 -50.5099983215332,-118.24400329589844 -50.5,-117.93399810791016 C-50.5,-117.93399810791016 -48.900001525878906,-72.13400268554688 -48.900001525878906,-72.13400268554688 C-48.439998626708984,-58.9640007019043 -42.810001373291016,-47.15399932861328 -33.9900016784668,-38.64400100708008 C-25.18000030517578,-30.124000549316406 -13.180000305175781,-24.90399932861328 0,-24.90399932861328 C26.360000610351562,-24.90399932861328 47.9900016784668,-45.79399871826172 48.900001525878906,-72.13400268554688 C48.900001525878906,-72.13400268554688 50.43000030517578,-115.93399810791016 50.43000030517578,-115.93399810791016 M27.799999237060547,-17.77400016784668 C27.799999237060547,-17.77400016784668 34.06999969482422,-17.77400016784668 34.06999969482422,-17.77400016784668 C71.69999694824219,-17.77400016784668 102.19999694824219,12.72599983215332 102.19999694824219,50.35599899291992 C102.19999694824219,50.35599899291992 102.19999694824219,73.15599822998047 102.19999694824219,73.15599822998047 C102.19999694824219,79.40599822998047 97.5199966430664,84.66600036621094 91.30000305175781,85.38600158691406 C91.30000305175781,85.38600158691406 67.45999908447266,88.14600372314453 67.45999908447266,88.14600372314453 C60.95000076293945,88.89600372314453 54.56999969482422,90.56600189208984 48.52000045776367,93.09600067138672 C32.91999816894531,99.61599731445312 16.34000015258789,102.8759994506836 -0.23999999463558197,102.8759994506836 C-16.739999771118164,102.8759994506836 -33.2400016784668,99.64600372314453 -48.779998779296875,93.19599914550781 C-48.779998779296875,93.19599914550781 -48.939998626708984,93.1259994506836 -48.939998626708984,93.1259994506836 C-55.2599983215332,90.49600219726562 -61.90999984741211,88.76599884033203 -68.69999694824219,87.98600006103516 C-68.69999694824219,87.98600006103516 -91.30000305175781,85.38600158691406 -91.30000305175781,85.38600158691406 C-97.51000213623047,84.66600036621094 -102.19999694824219,79.40599822998047 -102.19999694824219,73.14600372314453 C-102.19999694824219,73.14600372314453 -102.19999694824219,50.35599899291992 -102.19999694824219,50.35599899291992 C-102.19999694824219,12.72599983215332 -71.69999694824219,-17.77400016784668 -34.06999969482422,-17.77400016784668 C-34.06999969482422,-17.77400016784668 -27.799999237060547,-17.77400016784668 -27.799999237060547,-17.77400016784668 M27.808000564575195,-33.57500076293945 C27.808000564575195,-33.57500076293945 27.808000564575195,-18.027000427246094 27.808000564575195,-18.027000427246094 C27.808000564575195,-2.7330000400543213 -0.004000000189989805,11.777000427246094 -0.004000000189989805,11.777000427246094 C-0.004000000189989805,11.777000427246094 -27.808000564575195,-2.7330000400543213 -27.808000564575195,-18.027000427246094 C-27.808000564575195,-18.027000427246094 -27.808000564575195,-33.56700134277344 -27.808000564575195,-33.56700134277344"/></g><g opacity="1" transform="matrix(1,0,0,1,0,0)"><path stroke-linecap="round" stroke-linejoin="round" fill-opacity="0" class="secondary" stroke="rgb(0,0,0)" stroke-opacity="1" stroke-width="12.04" d=" M50.428001403808594,-115.93199920654297 C50.428001403808594,-115.93199920654297 51.974998474121094,-127.28500366210938 51.974998474121094,-127.28500366210938 C53.56700134277344,-146.49099731445312 38.51599884033203,-173.93600463867188 -0.06700000166893005,-173.93600463867188 C-38.23899841308594,-173.93600463867188 -53.64099884033203,-146.47000122070312 -51.965999603271484,-127.2490005493164 C-51.965999603271484,-127.2490005493164 -50.52000045776367,-118.84100341796875 -50.52000045776367,-118.84100341796875 C-50.52000045776367,-118.84100341796875 -26.687000274658203,-138.67100524902344 -26.687000274658203,-138.67100524902344 C-26.687000274658203,-138.67100524902344 -26.687000274658203,-138.67100524902344 -26.687000274658203,-138.67100524902344 C-9.114999771118164,-134.72000122070312 9.114999771118164,-134.72000122070312 26.687000274658203,-138.67100524902344 C26.687000274658203,-138.67100524902344 26.687000274658203,-138.67100524902344 26.687000274658203,-138.67100524902344 C26.687000274658203,-138.67100524902344 50.428001403808594,-115.93199920654297 50.428001403808594,-115.93199920654297z"/></g></g></g><g style="display: block;" transform="matrix(1,0,0,1,215,215.00001525878906)" opacity="1"><g opacity="1" transform="matrix(1,0,0,1,0,0)"><path stroke-linecap="round" stroke-linejoin="round" fill-opacity="0" class="primary" stroke="rgb(0,0,0)" stroke-opacity="1" stroke-width="12.04" d=" M133.43299865722656,107.41300201416016 C133.43299865722656,107.41300201416016 117.4209976196289,160.11900329589844 117.4209976196289,160.11900329589844 C117.4209976196289,160.11900329589844 -117.4209976196289,160.11900329589844 -117.4209976196289,160.11900329589844 C-117.4209976196289,160.11900329589844 -133.43299865722656,107.41300201416016 -133.43299865722656,107.41300201416016"/></g><g opacity="1" transform="matrix(1,0,0,1,0,0)"><path stroke-linecap="round" stroke-linejoin="round" fill-opacity="0" class="primary" stroke="rgb(0,0,0)" stroke-opacity="1" stroke-width="12.04" d=" M160.11900329589844,107.21900177001953 C160.11900329589844,107.21900177001953 -160.11900329589844,107.21900177001953 -160.11900329589844,107.21900177001953 C-160.11900329589844,107.21900177001953 -160.11900329589844,59.04100036621094 -160.11900329589844,59.04100036621094 C-160.11900329589844,59.04100036621094 160.11900329589844,59.04100036621094 160.11900329589844,59.04100036621094 C160.11900329589844,59.04100036621094 160.11900329589844,107.21900177001953 160.11900329589844,107.21900177001953z"/></g><g opacity="1" transform="matrix(1,0,0,1,0,0)"><g opacity="1" transform="matrix(1,0,0,1,0,0)"><path stroke-linecap="round" stroke-linejoin="round" fill-opacity="0" class="primary" stroke="rgb(0,0,0)" stroke-opacity="1" stroke-width="12.04" d=" M117.33999633789062,-43.40399932861328 C117.33999633789062,-43.40399932861328 160.1199951171875,-26.27400016784668 160.1199951171875,-26.27400016784668 C160.1199951171875,-26.27400016784668 160.1199951171875,58.84600067138672 160.1199951171875,58.84600067138672"/></g><g opacity="1" transform="matrix(1,0,0,1,0,0)"><path stroke-linecap="round" stroke-linejoin="round" fill-opacity="0" class="primary" stroke="rgb(0,0,0)" stroke-opacity="1" stroke-width="12.04" d=" M80.83300018310547,-43.042999267578125 C80.83300018310547,-43.042999267578125 99.90899658203125,-35.875 99.90899658203125,-35.875 C106.95800018310547,-33.22600173950195 114.89299774169922,-36.82600021362305 117.54199981689453,-43.875 C117.54199981689453,-43.875 117.54199981689453,-43.875999450683594 117.54199981689453,-43.875999450683594 C120.19100189208984,-50.92499923706055 116.58999633789062,-58.86000061035156 109.54100036621094,-61.50899887084961 C109.54100036621094,-61.50899887084961 90.46499633789062,-68.677001953125 90.46499633789062,-68.677001953125 C83.41600036621094,-71.32599639892578 75.48100280761719,-67.7249984741211 72.83200073242188,-60.67599868774414 C72.83200073242188,-60.67599868774414 72.83200073242188,-60.67599868774414 72.83200073242188,-60.67599868774414 C70.18299865722656,-53.62699890136719 73.78399658203125,-45.69200134277344 80.83300018310547,-43.042999267578125z"/></g></g><g opacity="1" transform="matrix(1,0,0,1,0,0)"><g opacity="1" transform="matrix(1,0,0,1,0,0)"><path stroke-linecap="round" stroke-linejoin="round" fill-opacity="0" class="primary" stroke="rgb(0,0,0)" stroke-opacity="1" stroke-width="12.04" d=" M-160.1199951171875,58.84600067138672 C-160.1199951171875,58.84600067138672 -160.1199951171875,-26.27400016784668 -160.1199951171875,-26.27400016784668 C-160.1199951171875,-26.27400016784668 -117.33999633789062,-43.40399932861328 -117.33999633789062,-43.40399932861328"/></g><g opacity="1" transform="matrix(1,0,0,1,0,0)"><path stroke-linecap="round" stroke-linejoin="round" fill-opacity="0" class="primary" stroke="rgb(0,0,0)" stroke-opacity="1" stroke-width="12.04" d=" M-80.83300018310547,-43.042999267578125 C-80.83300018310547,-43.042999267578125 -99.90899658203125,-35.875 -99.90899658203125,-35.875 C-106.95800018310547,-33.22600173950195 -114.89299774169922,-36.82600021362305 -117.54199981689453,-43.875 C-117.54199981689453,-43.875 -117.54199981689453,-43.875999450683594 -117.54199981689453,-43.875999450683594 C-120.19100189208984,-50.92499923706055 -116.58999633789062,-58.86000061035156 -109.54100036621094,-61.50899887084961 C-109.54100036621094,-61.50899887084961 -90.46499633789062,-68.677001953125 -90.46499633789062,-68.677001953125 C-83.41600036621094,-71.32599639892578 -75.48100280761719,-67.7249984741211 -72.83200073242188,-60.67599868774414 C-72.83200073242188,-60.67599868774414 -72.83200073242188,-60.67599868774414 -72.83200073242188,-60.67599868774414 C-70.18299865722656,-53.62699890136719 -73.78399658203125,-45.69200134277344 -80.83300018310547,-43.042999267578125z"/></g></g></g></g></g></svg>