<svg xmlns="http://www.w3.org/2000/svg" xmlns:xlink="http://www.w3.org/1999/xlink" viewBox="0 0 430 430" width="430" height="430" style="width: 100%; height: 100%; transform: translate3d(0px, 0px, 0px); content-visibility: visible;" preserveAspectRatio="xMidYMid meet"><defs><clipPath id="__lottie_element_16"><rect width="430" height="430" x="0" y="0"/></clipPath><clipPath id="__lottie_element_18"><path d="M0,0 L430,0 L430,430 L0,430z"/></clipPath><g id="__lottie_element_25"><g style="display: block;" transform="matrix(1,0,0,1,-35,-35)" opacity="1"><g opacity="1" transform="matrix(1,0,0,1,337.4230041503906,330.72698974609375)"><path fill="rgb(255,255,255)" fill-opacity="1" d=" M13.992513656616211,-106.13706970214844 C59.39851379394531,-75.78907012939453 73.90299987792969,106.0790023803711 73.90299987792969,106.0790023803711 C73.90299987792969,106.0790023803711 0.03400000184774399,106.0790023803711 0.03400000184774399,106.0790023803711 C0.03400000184774399,106.0790023803711 -0.03400000184774399,106.0790023803711 -0.03400000184774399,106.0790023803711 C-0.03400000184774399,106.0790023803711 -73.90299987792969,106.0790023803711 -73.90299987792969,106.0790023803711 C-73.90299987792969,106.0790023803711 -92.6214828491211,-75.78907012939453 -47.215484619140625,-106.13706970214844 M18.54629898071289,-141.61099243164062 C18.54629898071289,-141.61099243164062 13.863299369812012,-106.0719985961914 13.863299369812012,-106.0719985961914 C13.863299369812012,-106.0719985961914 -18.301700592041016,-78.71854400634766 -18.301700592041016,-78.71854400634766 C-18.301700592041016,-78.71854400634766 -47.12770080566406,-106.4530029296875 -47.12770080566406,-106.4530029296875 C-47.12770080566406,-106.4530029296875 -52.37770080566406,-141.2030029296875 -52.37770080566406,-141.2030029296875 C-52.37770080566406,-141.2030029296875 18.54629898071289,-141.61099243164062 18.54629898071289,-141.61099243164062z"/><path stroke-linecap="round" stroke-linejoin="round" fill-opacity="0" class="secondary" stroke="rgb(46,35,27)" stroke-opacity="1" stroke-width="12.04" d=" M13.992513656616211,-106.13706970214844 C59.39851379394531,-75.78907012939453 73.90299987792969,106.0790023803711 73.90299987792969,106.0790023803711 C73.90299987792969,106.0790023803711 0.03400000184774399,106.0790023803711 0.03400000184774399,106.0790023803711 C0.03400000184774399,106.0790023803711 -0.03400000184774399,106.0790023803711 -0.03400000184774399,106.0790023803711 C-0.03400000184774399,106.0790023803711 -73.90299987792969,106.0790023803711 -73.90299987792969,106.0790023803711 C-73.90299987792969,106.0790023803711 -92.6214828491211,-75.78907012939453 -47.215484619140625,-106.13706970214844 M18.54629898071289,-141.61099243164062 C18.54629898071289,-141.61099243164062 13.863299369812012,-106.0719985961914 13.863299369812012,-106.0719985961914 C13.863299369812012,-106.0719985961914 -18.301700592041016,-78.71854400634766 -18.301700592041016,-78.71854400634766 C-18.301700592041016,-78.71854400634766 -47.12770080566406,-106.4530029296875 -47.12770080566406,-106.4530029296875 C-47.12770080566406,-106.4530029296875 -52.37770080566406,-141.2030029296875 -52.37770080566406,-141.2030029296875 C-52.37770080566406,-141.2030029296875 18.54629898071289,-141.61099243164062 18.54629898071289,-141.61099243164062z"/></g></g></g><g id="__lottie_element_34"><g style="display: block;" transform="matrix(1,0,0,1,-35,-35)" opacity="1"><g opacity="1" transform="matrix(1,0,0,1,308.7099914550781,214.89999389648438)"><path stroke-linecap="round" stroke-linejoin="round" fill-opacity="0" class="primary" stroke="rgb(46,35,27)" stroke-opacity="1" stroke-width="0" d=" M12.125802993774414,-66.97541809082031 C3.762802839279175,-66.97941589355469 -4.598216533660889,-66.5044174194336 -12.946216583251953,-65.5494155883789 C-31.48721694946289,-63.42741394042969 -41.422203063964844,-49.84931182861328 -47.846092224121094,-29.86917495727539 C-47.846092224121094,-29.86917495727539 -55.043216705322266,-5.359334468841553 -55.043216705322266,-5.359334468841553 C-55.043216705322266,-5.359334468841553 -80.7435531616211,46.52181625366211 -80.7435531616211,46.52181625366211 C-70.36244201660156,52.996707916259766 -56.69741439819336,49.830604553222656 -50.22251892089844,39.449493408203125 C-50.22251892089844,39.449493408203125 -34.204010009765625,4.146520614624023 -34.204010009765625,4.146520614624023 C-34.204010009765625,4.146520614624023 -23.175216674804688,-25.86641502380371 -23.175216674804688,-25.86641502380371"/><path fill="rgb(255,0,0)" fill-opacity="1" d=" M12.125802993774414,-66.97541809082031 C3.762802839279175,-66.97941589355469 -4.598216533660889,-66.5044174194336 -12.946216583251953,-65.5494155883789 C-31.48721694946289,-63.42741394042969 -41.422203063964844,-49.84931182861328 -47.846092224121094,-29.86917495727539 C-47.846092224121094,-29.86917495727539 -55.043216705322266,-5.359334468841553 -55.043216705322266,-5.359334468841553 C-55.043216705322266,-5.359334468841553 -80.7435531616211,46.52181625366211 -80.7435531616211,46.52181625366211 C-70.36244201660156,52.996707916259766 -56.69741439819336,49.830604553222656 -50.22251892089844,39.449493408203125 C-50.22251892089844,39.449493408203125 -34.204010009765625,4.146520614624023 -34.204010009765625,4.146520614624023 C-34.204010009765625,4.146520614624023 -23.175216674804688,-25.86641502380371 -23.175216674804688,-25.86641502380371"/></g></g></g><filter id="__lottie_element_37" filterUnits="objectBoundingBox" x="0%" y="0%" width="100%" height="100%"><feComponentTransfer in="SourceGraphic"><feFuncA type="table" tableValues="1.0 0.0"/></feComponentTransfer></filter><mask id="__lottie_element_34_2" mask-type="alpha" maskUnits="userSpaceOnUse"><g filter="url(#__lottie_element_37)"><rect width="430" height="430" x="0" y="0" fill="#ffffff" opacity="0"/><use a0:href="#__lottie_element_34" xmlns:a0="http://www.w3.org/1999/xlink"/></g></mask><filter id="__lottie_element_38" filterUnits="objectBoundingBox" x="0%" y="0%" width="100%" height="100%"><feComponentTransfer in="SourceGraphic"><feFuncA type="table" tableValues="1.0 0.0"/></feComponentTransfer></filter><mask id="__lottie_element_25_2" mask-type="alpha" maskUnits="userSpaceOnUse"><g filter="url(#__lottie_element_38)"><rect width="430" height="430" x="0" y="0" fill="#ffffff" opacity="0"/><use a1:href="#__lottie_element_25" xmlns:a1="http://www.w3.org/1999/xlink"/></g></mask></defs><g clip-path="url(#__lottie_element_16)"><g clip-path="url(#__lottie_element_18)" style="display: block;" transform="matrix(1,0,0,1,0,0)" opacity="1"><g style="display: block;" mask="url(#__lottie_element_25_2)"><g transform="matrix(1,0,0,1,-35,-35)" opacity="1"><g opacity="1" transform="matrix(1,0,0,1,337.4230041503906,177.91400146484375)"><path stroke-linecap="round" stroke-linejoin="round" fill-opacity="0" class="secondary" stroke="rgb(46,35,27)" stroke-opacity="1" stroke-width="12.04" d=" M-67.2992172241211,-13.120673179626465 C-67.2992172241211,-13.120673179626465 -66.50983428955078,-68.49114227294922 -66.50983428955078,-68.49114227294922 C-66.05831146240234,-92.45325469970703 -46.66022872924805,-112.03463745117188 -22.63922691345215,-112.03463745117188 C-22.63922691345215,-112.03463745117188 -8.343489646911621,-112.03463745117188 -8.343489646911621,-112.03463745117188 C15.676509857177734,-112.03463745117188 34.841407775878906,-92.45325469970703 34.40882873535156,-68.42536163330078 C34.40882873535156,-68.42536163330078 33.68522644042969,-14.534720420837402 33.68522644042969,-14.534720420837402"/></g><g opacity="1" transform="matrix(1,0,0,1,337.0849914550781,96.88500213623047)"><path stroke-linecap="round" stroke-linejoin="round" fill-opacity="0" class="primary" stroke="rgb(46,35,27)" stroke-opacity="1" stroke-width="12.04" d=" M-30.567914962768555,30.78346061706543 C-30.567914962768555,30.78346061706543 -12.36450481414795,28.36492156982422 -12.36450481414795,28.36492156982422 C-5.422508239746094,26.709247589111328 0.11466720700263977,19.705842971801758 1.7762857675552368,16.487112045288086 C3.990415334701538,12.194642066955566 7.139598369598389,4.2092976570129395 6.914193630218506,-9.718935012817383 C5.636474132537842,-33.552146911621094 -19.38621711730957,-30.8314151763916 -19.38621711730957,-30.8314151763916 C-19.38621711730957,-30.8314151763916 -39.663291931152344,-31.052759170532227 -40.74980545043945,-4.0345282554626465 C-41.19386291503906,7.058955192565918 -39.00563049316406,20.420318603515625 -37.098114013671875,26.266923904418945 C-35.45075607299805,31.352243423461914 -30.567914962768555,30.78346061706543 -30.567914962768555,30.78346061706543z"/></g><g opacity="1" transform="matrix(1,0,0,1,308.7099914550781,214.89999389648438)"><path stroke-linecap="round" stroke-linejoin="round" fill-opacity="0" class="primary" stroke="rgb(46,35,27)" stroke-opacity="1" stroke-width="12.04" d=" M12.125802993774414,-66.97541809082031 C3.762802839279175,-66.97941589355469 -4.598216533660889,-66.5044174194336 -12.946216583251953,-65.5494155883789 C-31.48721694946289,-63.42741394042969 -41.422203063964844,-49.84931182861328 -47.846092224121094,-29.86917495727539 C-47.846092224121094,-29.86917495727539 -55.043216705322266,-5.359334468841553 -55.043216705322266,-5.359334468841553 C-55.043216705322266,-5.359334468841553 -80.7435531616211,46.52181625366211 -80.7435531616211,46.52181625366211 C-70.36244201660156,52.996707916259766 -56.69741439819336,49.830604553222656 -50.22251892089844,39.449493408203125 C-50.22251892089844,39.449493408203125 -34.204010009765625,4.146520614624023 -34.204010009765625,4.146520614624023 C-34.204010009765625,4.146520614624023 -23.175216674804688,-25.86641502380371 -23.175216674804688,-25.86641502380371"/></g><g opacity="1" transform="matrix(1,0,0,1,366.14898681640625,214.89999389648438)"><path stroke-linecap="round" stroke-linejoin="round" fill-opacity="0" class="primary" stroke="rgb(46,35,27)" stroke-opacity="1" stroke-width="12.04" d=" M-45.39421844482422,-66.97639465332031 C-37.03121566772461,-66.98039245605469 -28.66921615600586,-66.5044174194336 -20.321216583251953,-65.5494155883789 C-1.7802166938781738,-63.42741394042969 12.12578296661377,-47.5504150390625 12.12578296661377,-28.888416290283203 C12.12578296661377,-28.888416290283203 2.815802812576294,66.85958099365234 2.815802812576294,66.85958099365234 C2.815802812576294,66.85958099365234 12.12578296661377,66.85958099365234 12.12578296661377,66.85958099365234 C-0.1452166736125946,66.85958099365234 -19.403196334838867,56.911582946777344 -19.403196334838867,44.64058303833008 C-19.403196334838867,44.64058303833008 -14.843216896057129,11.61914348602295 -14.843216896057129,11.61914348602295"/></g></g></g><g style="display: block;" transform="matrix(1,0,0,1,-35,-35)" opacity="1"><g opacity="1" transform="matrix(1,0,0,1,304.510986328125,206.86199951171875)"><path stroke-linecap="round" stroke-linejoin="round" fill-opacity="0" class="secondary" stroke="rgb(46,35,27)" stroke-opacity="1" stroke-width="12.04" d=" M-18.9534854888916,-17.827070236206055 C-18.9534854888916,-17.827070236206055 -14.269486427307129,17.711929321289062 -14.269486427307129,17.711929321289062"/></g><g opacity="1" transform="matrix(1,0,0,1,370.3330078125,206.86199951171875)"><path stroke-linecap="round" stroke-linejoin="round" fill-opacity="0" class="secondary" stroke="rgb(46,35,27)" stroke-opacity="1" stroke-width="12.04" d=" M-14.269486427307129,-17.827070236206055 C-14.269486427307129,-17.827070236206055 -18.9534854888916,17.711929321289062 -18.9534854888916,17.711929321289062"/></g><g opacity="1" transform="matrix(1,0,0,1,337.4230041503906,330.72698974609375)"><path stroke-linecap="round" stroke-linejoin="round" fill-opacity="0" class="secondary" stroke="rgb(46,35,27)" stroke-opacity="1" stroke-width="12.04" d=" M13.992513656616211,-106.13706970214844 C59.39851379394531,-75.78907012939453 73.90299987792969,106.0790023803711 73.90299987792969,106.0790023803711 C73.90299987792969,106.0790023803711 0.03400000184774399,106.0790023803711 0.03400000184774399,106.0790023803711 C0.03400000184774399,106.0790023803711 -0.03400000184774399,106.0790023803711 -0.03400000184774399,106.0790023803711 C-0.03400000184774399,106.0790023803711 -73.90299987792969,106.0790023803711 -73.90299987792969,106.0790023803711 C-73.90299987792969,106.0790023803711 -92.6214828491211,-75.78907012939453 -47.215484619140625,-106.13706970214844"/></g><g opacity="1" transform="matrix(1,0,0,1,337.42999267578125,189.1269989013672)"><path stroke-linecap="round" stroke-linejoin="round" fill-opacity="0" class="secondary" stroke="rgb(46,35,27)" stroke-opacity="1" stroke-width="12.04" d=" M18.649513244628906,-0.09307005256414413 C18.649513244628906,-0.09307005256414413 -23.11567497253418,-19.162025451660156 -28.814884185791016,7.745455741882324 C-44.279056549072266,-14.765942573547363 -51.87248611450195,-0.09307005256414413 -51.87248611450195,-0.09307005256414413"/></g></g><g style="display: block;" mask="url(#__lottie_element_34_2)"><g transform="matrix(1,0,0,1,-35.00000762939453,-35)" opacity="1"><g opacity="1" transform="matrix(1,0,0,1,154.64100646972656,227.35499572753906)"><path stroke-linecap="round" stroke-linejoin="round" fill-opacity="0" class="primary" stroke="rgb(46,35,27)" stroke-opacity="1" stroke-width="12.04" d=" M12.496977806091309,65.05290985107422 C12.496977806091309,65.05290985107422 -0.032999999821186066,208.1540069580078 -0.032999999821186066,208.1540069580078 C-0.032999999821186066,208.1540069580078 -45.029998779296875,208.1540069580078 -53.79899978637695,208.1540069580078 C-62.06100082397461,195.10800170898438 -36.38600158691406,182.52200317382812 -36.38600158691406,182.52200317382812 C-36.38600158691406,182.52200317382812 -26.608842849731445,26.83683204650879 -26.608842849731445,26.83683204650879 M12.509984016418457,65.05390167236328 C12.509984016418457,65.05390167236328 0.023000000044703484,208.1540069580078 0.023000000044703484,208.1540069580078 C0.023000000044703484,208.1540069580078 45.02000045776367,208.1540069580078 53.78900146484375,208.1540069580078 C62.05099868774414,195.10800170898438 36.375999450683594,182.52200317382812 36.375999450683594,182.52200317382812 C36.375999450683594,182.52200317382812 52.531192779541016,27.79595184326172 52.531192779541016,27.79595184326172 M23.26621437072754,-104.00131225585938 C23.26621437072754,-104.00131225585938 43.85054397583008,-105.4862060546875 43.85054397583008,-105.4862060546875 C47.14360046386719,-105.7237548828125 49.643836975097656,-108.61260223388672 49.40629196166992,-111.90565490722656 C49.40629196166992,-111.90565490722656 47.05073547363281,-144.5601806640625 47.05073547363281,-144.5601806640625 C46.2566032409668,-155.57135009765625 36.59844207763672,-163.93048095703125 25.587265014648438,-163.1363525390625 C25.587265014648438,-163.1363525390625 19.034162521362305,-162.6632537841797 19.034162521362305,-162.6632537841797 C8.022985458374023,-161.86912536621094 -0.335146427154541,-152.21095275878906 0.4589846730232239,-141.1997833251953 C0.4589846730232239,-141.1997833251953 1.801751971244812,-122.57649230957031 1.801751971244812,-122.57649230957031 C2.5958831310272217,-111.56531524658203 12.255038261413574,-103.20718383789062 23.26621437072754,-104.00131225585938z M52.53419494628906,27.79595184326172 C52.53419494628906,27.79595184326172 53.37205505371094,-41.38408660888672 53.37205505371094,-41.38408660888672 M-25.787981033325195,-42.343204498291016 C-25.787981033325195,-42.343204498291016 -26.58784294128418,26.83683204650879 -26.58784294128418,26.83683204650879 M14.302990913391113,-82.80815887451172 C3.0679850578308105,-82.94932556152344 -8.175966262817383,-82.43548583984375 -19.398874282836914,-81.26465606689453 C-37.88172149658203,-79.33728790283203 -51.91856002807617,-63.725250244140625 -52.1441764831543,-45.14324188232422 C-52.1441764831543,-45.14324188232422 -53.29313278198242,49.6898078918457 -53.29313278198242,49.6898078918457 C-53.29313278198242,49.6898078918457 -26.944887161254883,53.1468391418457 -26.592050552368164,24.04782485961914 C-26.592050552368164,24.04782485961914 -25.787981033325195,-42.343204498291016 -25.787981033325195,-42.343204498291016 M14.302990913391113,-82.80815887451172 C25.537996292114258,-82.67699432373047 36.765045166015625,-81.88983154296875 47.95615005493164,-80.44766235351562 C66.38732147216797,-78.07303619384766 80.04249572753906,-62.125064849853516 79.81687927246094,-43.543052673339844 C79.81687927246094,-43.543052673339844 78.66693115234375,-15.028515815734863 78.66693115234375,-15.028515815734863 C78.66693115234375,-15.028515815734863 98.12165069580078,35.975887298583984 98.12165069580078,35.975887298583984 C98.12165069580078,35.975887298583984 73.62604522705078,46.2640380859375 65.60423278808594,18.298078536987305 C65.60423278808594,18.298078536987305 56.36785888671875,-2.0488955974578857 56.36785888671875,-2.0488955974578857 C56.36785888671875,-2.0488955974578857 53.400054931640625,-41.38309097290039 53.400054931640625,-41.38309097290039 M-10.472941398620605,-82.04032135009766 C-10.472941398620605,-82.04032135009766 34.13307189941406,-30.95947265625 34.13307189941406,-30.95947265625 C34.13307189941406,-30.95947265625 39.0490837097168,-81.44000244140625 39.0490837097168,-81.44000244140625 M52.609901428222656,23.843944549560547 C52.609901428222656,23.843944549560547 -26.578136444091797,22.883831024169922 -26.578136444091797,22.883831024169922 M34.13307189941406,-30.95947265625 C34.13307189941406,-30.95947265625 33.37372589111328,23.360889434814453 33.37372589111328,23.360889434814453"/></g></g></g></g></g></svg>